<svg xmlns="http://www.w3.org/2000/svg" viewBox="0 0 400 114.42"><defs><style>.cls-1{fill:#016fd0}</style></defs><g id="Слой_2" data-name="Слой 2"><g id="svg2"><path id="path3046" class="cls-1" d="M21.77 0 0 50.62h14.17l4-10.13h23.37l4 10.13H60L38.27 0Zm8.05 11.78 7.12 17.72H22.68Z"/><path id="path3048" class="cls-1" d="M61.52 50.61V0l20.14.07 11.71 32.64L104.8 0h20v50.61h-12.67V13.32L98.72 50.61h-11.1L74.17 13.32v37.29Z"/><path id="path3050" class="cls-1" d="M133.44 50.61V0h41.29v11.32h-28.5V20h27.83v10.63h-27.83v9h28.5v11Z"/><path id="path3052" class="cls-1" d="M182.05 0v50.62h12.66v-18H200l15.17 18h15.46L214 32a15.41 15.41 0 0 0 13.9-15.57C227.9 5.78 219.54 0 210.21 0Zm12.66 11.32h14.46c3.47 0 6 2.71 6 5.33 0 3.36-3.27 5.33-5.81 5.33h-14.65V11.33Z"/><path id="path3054" class="cls-1" d="M246 50.61h-12.93V0H246Z"/><path id="path3056" class="cls-1" d="M276.62 50.61h-2.79c-13.49 0-21.68-10.63-21.68-25.1 0-14.82 8.1-25.51 25.14-25.51h14v12h-14.5c-6.91 0-11.8 5.4-11.8 13.65 0 9.8 5.59 13.92 13.65 13.92H282Z"/><path id="path3058" class="cls-1" d="m304.15 0-21.77 50.62h14.18l4-10.13h23.35l4 10.13h14.49L320.66 0Zm8.06 11.78 7.11 17.71h-14.25l7.14-17.71Z"/><path id="path3060" class="cls-1" d="M343.88 50.61V0H360l20.54 31.8V0h12.65v50.61H377.6L356.53 18v32.61Z"/><path id="path3062" class="cls-1" d="M60.62 114.41V63.8h41.29v11.32h-28.5v8.65h27.84v10.66H73.41v9h28.5v11Z"/><path id="path3064" class="cls-1" d="M262.94 114.41V63.8h41.29v11.32h-28.5v8.65h27.7v10.66h-27.7v9h28.5v11Z"/><path id="path3066" class="cls-1" d="m103.52 114.41 20.1-25L103 63.8h16l12.26 15.83 12.3-15.83h15.31l-20.33 25.3 20.14 25.31h-15.94l-11.9-15.59-11.61 15.59Z"/><path id="path3068" class="cls-1" d="M160.18 63.8v50.62h13v-16h13.32c11.27 0 19.81-6 19.81-17.6 0-9.63-6.7-17-18.17-17Zm13 11.45h14c3.64 0 6.24 2.23 6.24 5.83 0 3.37-2.59 5.82-6.28 5.82h-14V75.25Z"/><path id="path3072" class="cls-1" d="M211.8 63.8v50.61h12.65v-18h5.33l15.17 18h15.46l-16.65-18.65a15.41 15.41 0 0 0 13.88-15.54c0-10.66-8.36-16.42-17.69-16.42Zm12.65 11.32h14.46c3.47 0 6 2.71 6 5.32 0 3.37-3.27 5.33-5.81 5.33h-14.65Z"/><path id="path3074" class="cls-1" d="M310.09 114.41v-11h25.32c3.75 0 5.37-2 5.37-4.25s-1.62-4.27-5.37-4.27H324c-10 0-15.49-6.06-15.49-15.16 0-8.12 5.08-15.94 19.86-15.94H353l-5.33 11.38h-21.33c-4.07 0-5.33 2.14-5.33 4.18a4.41 4.41 0 0 0 4.66 4.41h12c11.09 0 15.9 6.29 15.9 14.53 0 8.86-5.36 16.11-16.5 16.11Z"/><path id="path3076" class="cls-1" d="M356.53 114.41v-11h25.32c3.75 0 5.37-2 5.37-4.25s-1.62-4.27-5.37-4.27h-11.44c-10 0-15.49-6.06-15.49-15.16 0-8.12 5.08-15.94 19.86-15.94h24.64l-5.33 11.38h-21.31c-4.07 0-5.33 2.14-5.33 4.18a4.41 4.41 0 0 0 4.66 4.41h12c11.09 0 15.9 6.29 15.9 14.53 0 8.86-5.36 16.11-16.5 16.11Z"/></g></g></svg>