<svg width="66" height="41" xmlns="http://www.w3.org/2000/svg"><g id="Documentation" stroke="none" stroke-width="1" fill="none" fill-rule="evenodd"><g id="Artboard" transform="translate(-1061 -1396)"><g id="Logos" transform="translate(611 1396)"><g id="Logos/Dankort" transform="translate(450 .512)"><g id="Group" transform="translate(.003 .122)"><path d="M19.857.395C9.126.395.395 9.125.395 19.855s8.731 19.46 19.462 19.46h26.21c10.73 0 19.46-8.73 19.46-19.46S56.797.395 46.067.395h-26.21Z" id="WhiteBackground" fill="#FEFEFE"/><path d="M19.857.395C9.126.395.395 9.125.395 19.855s8.731 19.46 19.462 19.46h26.21c10.73 0 19.46-8.73 19.46-19.46S56.797.395 46.067.395h-26.21Zm26.21 39.316h-26.21C8.907 39.711 0 30.804 0 19.855 0 8.907 8.908 0 19.857 0h26.21c10.948 0 19.855 8.907 19.855 19.855 0 10.949-8.907 19.856-19.855 19.856Z" id="BalckOutline" fill="#221E1F"/><path d="M25.951 9.373H7.563c2.967-3.474 7.378-5.68 12.294-5.68h26.21c4.915 0 9.324 2.206 12.291 5.68h-13.64l-6.849 7.14c-.505-5.484-5.409-7.14-11.918-7.14Zm24.698 9.293 8.407-8.418a16.076 16.076 0 0 1 3.174 9.607c0 3.406-1.06 6.568-2.866 9.177L50.65 18.666Zm-35.421-2.38h8.461c1.895 0 3.437.848 2.823 3.033-.62 2.21-1.459 3.358-4.231 3.358h-9.378l2.325-6.39Zm29.548 13.618h13.941c-2.964 3.724-7.533 6.115-12.65 6.115h-26.21c-5.119 0-9.689-2.392-12.652-6.116h16.381c8.22 0 12.605-2.912 13.945-9.154l7.245 9.155Z" id="Dankort" fill="#E21F28"/></g></g></g></g></g></svg>