<svg width="256" height="27" fill="none" xmlns="http://www.w3.org/2000/svg"><g clip-path="url('#clip0_1549_17169')" fill="#006A4E"><path d="M9.545 3.572a2.34 2.34 0 0 0-.206-1.224c-.135-.2-.45-.308-.898-.308a6.718 6.718 0 0 0-4.49 1.813A11.916 11.916 0 0 0 .709 8.296L0 8.078 1.392.481h1.14l.162.145a.808.808 0 0 0 .26.181c.172.066.35.115.53.145.28.04.562.058.844.054h14.933c1.078 0 1.715-.172 1.913-.525h1.212l1.33 7.597-.71.218c-2.167-4.17-4.747-6.256-7.74-6.256a1.373 1.373 0 0 0-.899.218c-.189.331-.265.717-.215 1.097v19.62c-.108.831.05 1.676.449 2.411.359.372 1.365.562 3.017.562v.98H6.088v-.97c.73.019 1.46-.027 2.182-.137a1.331 1.331 0 0 0 .97-.707 4.18 4.18 0 0 0 .305-1.886V3.572Z"/><path d="M20.267 9.61a5.757 5.757 0 0 0-.144-1.55.91.91 0 0 0-.565-.626 4.111 4.111 0 0 0-1.356-.18v-.78h7.067a13.909 13.909 0 0 1 3.807.48 5.749 5.749 0 0 1 2.846 1.813 5.53 5.53 0 0 1 1.177 3.627c.034.837-.22 1.66-.718 2.33a4.235 4.235 0 0 1-1.635 1.27 5.097 5.097 0 0 1-1.553.425v.118c.253.11.473.285.637.508.194.31.365.635.512.97l2.883 5.667c.27.547.57 1.08.898 1.595.149.24.373.422.637.517.433.1.876.154 1.32.163v.762h-5.388l-3.322-7.815a7.63 7.63 0 0 0-.692-1.342 1.63 1.63 0 0 0-.592-.553 1.486 1.486 0 0 0-.656-.127h-1.796v6.528c-.02.55.02 1.1.117 1.64a.974.974 0 0 0 .593.69 4.45 4.45 0 0 0 1.652.217v.762h-7.794v-.762c.451.018.903-.019 1.347-.108a.898.898 0 0 0 .547-.617c.141-.56.199-1.137.171-1.714V9.61Zm3.305-2.357v8.83c.25-.009.5.012.745.064a8.665 8.665 0 0 0 3.592-.698c1.167-.716 1.796-1.976 1.796-3.78a5.962 5.962 0 0 0-.467-2.412 3.611 3.611 0 0 0-1.401-1.45 3.727 3.727 0 0 0-1.49-.454c-.567-.055-1.483-.1-2.776-.1Z"/><path d="M33.781 16.156c-.006-1.39.25-2.768.754-4.061A10.605 10.605 0 0 1 36.61 8.73a10.093 10.093 0 0 1 3.035-2.294 9.08 9.08 0 0 1 3.592-.906 8.64 8.64 0 0 1 4.49 1.323c1.5.919 2.737 2.215 3.591 3.763a10.963 10.963 0 0 1 1.383 5.549 11.084 11.084 0 0 1-.781 4.152 10.711 10.711 0 0 1-2.146 3.39 9.881 9.881 0 0 1-3.062 2.25 8.16 8.16 0 0 1-3.457.797 8.286 8.286 0 0 1-3.52-.798 9.947 9.947 0 0 1-3.08-2.275 11.029 11.029 0 0 1-2.91-7.516l.036-.01Zm15.104 0a20.25 20.25 0 0 0-.772-5.512 6.969 6.969 0 0 0-1.922-3.282 4.295 4.295 0 0 0-2.9-1.06 4.131 4.131 0 0 0-2.694.906A6.342 6.342 0 0 0 38.8 9.61c-.43 1.026-.73 2.1-.898 3.2a20.446 20.446 0 0 0 .09 7.254c.2 1.07.551 2.104 1.041 3.074a5.579 5.579 0 0 0 1.796 2.067 4.36 4.36 0 0 0 2.505.734 4.174 4.174 0 0 0 2.434-.734 5.658 5.658 0 0 0 1.796-2.058c.46-.99.772-2.045.925-3.128.261-1.274.393-2.571.395-3.872v.01Z"/><path d="m57.281 17.48-4.876-8.223c-.287-.517-.548-.961-.772-1.351a3.027 3.027 0 0 0-.61-.816 1.314 1.314 0 0 0-.692-.308c-.463-.049-.927-.07-1.392-.064v-.843h8.89v.843h-.216c-1.212 0-1.796.263-1.796.771.068.296.197.574.377.816l4.239 7.153 4.292-6.9c.174-.27.27-.583.279-.906 0-.635-.566-.952-1.698-.952v-.825h5.478v.843h-.26a2.678 2.678 0 0 0-1.796.644 10.465 10.465 0 0 0-1.608 2.013l-4.4 7.035v7.254a6.27 6.27 0 0 0 .153 1.64 1.054 1.054 0 0 0 .7.699c.603.163 1.227.23 1.85.2v.788h-8.791v-.789a8.008 8.008 0 0 0 1.796-.136.896.896 0 0 0 .682-.68c.143-.565.2-1.149.171-1.732V17.48ZM76.632 12.15V5.502a8.747 8.747 0 0 0-.198-2.284 1.093 1.093 0 0 0-.655-.798 9.022 9.022 0 0 0-1.796-.218V1.18h9.168c1.697-.05 3.39.2 5.002.734a6.08 6.08 0 0 1 2.91 2.085c.617.939.93 2.047.897 3.174.007.94-.195 1.87-.592 2.72a5.599 5.599 0 0 1-1.743 2.076c-.804.58-1.723.98-2.694 1.17v.063a9.177 9.177 0 0 1 4.66 2.511c.54.582.962 1.267 1.239 2.013.277.747.406 1.542.378 2.34a6.934 6.934 0 0 1-.97 3.816 5.675 5.675 0 0 1-2.864 2.258c-1.52.521-3.119.767-4.723.725H74v-.961a6.394 6.394 0 0 0 1.616-.154 1.163 1.163 0 0 0 .772-.707 4.793 4.793 0 0 0 .243-1.814V12.15Zm4.13-8.442v8.922h2.506a3.776 3.776 0 0 0 1.903-.344 3.816 3.816 0 0 0 1.491-1.243 7.005 7.005 0 0 0 1.069-3.998 6.325 6.325 0 0 0-.629-3.056 3.13 3.13 0 0 0-1.796-1.423 9.646 9.646 0 0 0-2.9-.363c-.4-.014-.799.007-1.195.064a.438.438 0 0 0-.359.335 4.95 4.95 0 0 0-.09 1.106Zm8.001 16.148a6.947 6.947 0 0 0-1.347-4.534c-.886-1.148-2.41-1.722-4.57-1.722h-2.084v9.973a2.27 2.27 0 0 0 .575 1.813 4.17 4.17 0 0 0 2.164.499 7.556 7.556 0 0 0 2.443-.345 3.457 3.457 0 0 0 1.643-1.17c.451-.56.76-1.222.898-1.93.16-.853.253-1.717.278-2.584ZM99.764 8.822c-.153-.553-.315-.907-.485-.907a17.873 17.873 0 0 0 1.472-1.75c.211-.245.403-.505.575-.78.198-.317.332-.47.413-.47.081 0 .252.162.377.489l6.538 16.927c.253.829.587 1.63.996 2.393a2.496 2.496 0 0 0 2.021.988v.798h-8.082v-.797c.53.03 1.06-.057 1.553-.254a.896.896 0 0 0 .388-.375.917.917 0 0 0 .106-.532 3.86 3.86 0 0 0-.296-1.305l-1.221-3.065h-7.408l-.988 2.947c-.147.421-.24.86-.278 1.305 0 .825.673 1.242 2.02 1.242v.798h-5.388v-.798a3.357 3.357 0 0 0 1.68-.906 5.454 5.454 0 0 0 1.014-1.814l4.993-14.134Zm3.825 10.345-3.412-9.067-3.242 9.067h6.654Z"/><path d="M126.612 21.043V9.366a4.321 4.321 0 0 0-.296-1.859 1.245 1.245 0 0 0-.736-.707 5.812 5.812 0 0 0-1.338-.172v-.825h5.163v.825a3.377 3.377 0 0 0-1.14.154 1.114 1.114 0 0 0-.62.707 5.25 5.25 0 0 0-.206 1.704V27h-.898l-12.59-19.203h-.081V22.93a3.463 3.463 0 0 0 .557 2.194 2.279 2.279 0 0 0 1.895.698v.79h-5.316v-.79a2.357 2.357 0 0 0 1.49-.589 2.886 2.886 0 0 0 .584-2.14V7.797a1.33 1.33 0 0 0-.135-.67.894.894 0 0 0-.538-.327 6.385 6.385 0 0 0-1.293-.172v-.825h5.666l9.832 15.24ZM137.478 17.108l-.988 1.243v5.367c-.012.44.024.882.108 1.315.045.259.174.495.368.67.2.158.44.256.692.282.432.054.866.085 1.302.09v.79h-8.342v-.79a4.85 4.85 0 0 0 1.795-.208 1.003 1.003 0 0 0 .584-.825c.083-.79.11-1.583.081-2.376V9.611a8.983 8.983 0 0 0-.18-1.95 1.099 1.099 0 0 0-.646-.807 4.451 4.451 0 0 0-1.652-.217v-.834h8.342v.834a5.635 5.635 0 0 0-1.554.163 1.032 1.032 0 0 0-.7.626c-.152.47-.219.965-.198 1.46v8.223l5.02-7.562c.44-.62.746-1.328.898-2.076 0-.372-.099-.599-.305-.69a3.037 3.037 0 0 0-1.123-.144v-.834h5.388v.834a3.492 3.492 0 0 0-2.164.49 8.201 8.201 0 0 0-1.599 1.994l-3.026 4.787 6.232 10.572c.269.53.683.97 1.194 1.269a3.496 3.496 0 0 0 1.689.372v.788h-5.577l-5.639-9.8ZM166.32 18.586c.391-.646.842-1.254 1.347-1.813a21.313 21.313 0 0 0 1.5-1.895c.337-.5.558-1.07.646-1.668a.754.754 0 0 0-.493-.698c-.5-.193-1.028-.3-1.563-.317v-.617h6.546v.617a8.232 8.232 0 0 0-1.796.416 4.109 4.109 0 0 0-1.284.835c-.555.527-1.065 1.1-1.526 1.713l-2.946 3.88c.395.481 1.033 1.333 1.895 2.54.603.88 1.259 1.722 1.967 2.52a1.986 1.986 0 0 0 1.391.689 2.16 2.16 0 0 0 1.087-.3c.304-.162.568-.391.772-.67l.557.272a4.122 4.122 0 0 1-1.462 1.546 4.065 4.065 0 0 1-2.031.602 3.905 3.905 0 0 1-1.967-.48 5.314 5.314 0 0 1-1.427-1.142 21.757 21.757 0 0 1-1.356-1.814 17.527 17.527 0 0 0-1.159-1.541 20.944 20.944 0 0 1-3.636 3.726 6.62 6.62 0 0 1-4.059 1.252 5.35 5.35 0 0 1-2.838-.744 5.168 5.168 0 0 1-1.921-2.04 6.467 6.467 0 0 1-.764-2.874 6.407 6.407 0 0 1 .844-2.947 7.82 7.82 0 0 1 1.994-2.22c.88-.704 1.831-1.311 2.837-1.814-1.418-1.112-2.128-2.2-2.128-3.264a3.536 3.536 0 0 1 .997-2.285 8.811 8.811 0 0 1 2.326-1.913 4.69 4.69 0 0 1 2.065-.77 4.376 4.376 0 0 1 1.976.444 3.396 3.396 0 0 1 1.364 1.187 2.84 2.84 0 0 1 .476 1.605 2.49 2.49 0 0 1-.44 1.37 4.518 4.518 0 0 1-.978 1.05c-.447.35-.911.673-1.392.971-.386.241-.758.504-1.114.789a246.117 246.117 0 0 1 3.493 3.4 24.973 24.973 0 0 1 2.2 2.402Zm-1.742 2.095a13.4 13.4 0 0 0-1.85-2.349 38.664 38.664 0 0 0-2.487-2.348l-2.2-1.886c-2.379.97-3.592 2.54-3.69 4.715a7.183 7.183 0 0 0 1.077 3.355 3.85 3.85 0 0 0 1.477 1.311c.597.3 1.261.44 1.926.402l.611-.054c.181-.01.36-.032.539-.064 1.526-.19 3.053-1.269 4.597-3.082Zm-4.49-8.414a9.95 9.95 0 0 0 1.994-1.387 2.132 2.132 0 0 0 .745-1.587 2.628 2.628 0 0 0-.368-1.242 3.113 3.113 0 0 0-1.033-1.142 2.754 2.754 0 0 0-1.589-.435 2.444 2.444 0 0 0-1.374.417c-.352.22-.638.534-.826.906-.17.338-.262.71-.269 1.088-.006.314.062.624.197.907.148.293.339.562.566.798.285.287.585.56.898.816l1.059.861ZM210.231 10.073a4.71 4.71 0 0 0-.207-1.596 1.149 1.149 0 0 0-.529-.68 2.155 2.155 0 0 0-.898-.145v-.761h6.348v.761a2.146 2.146 0 0 0-.556.045 2.872 2.872 0 0 0-.898.1.805.805 0 0 0-.413.544 5.15 5.15 0 0 0-.144 1.469v9.23c-.035 1.26.119 2.52.458 3.735.223.85.715 1.605 1.401 2.149a4.305 4.305 0 0 0 2.451.752 5.773 5.773 0 0 0 2.694-.625 4.644 4.644 0 0 0 1.957-1.895c.51-.944.762-2.008.728-3.083V10.1a4.508 4.508 0 0 0-.207-1.578 1.28 1.28 0 0 0-.673-.743 3.258 3.258 0 0 0-1.284-.2v-.688h4.714v.761a1.877 1.877 0 0 0-1.392.417 2.972 2.972 0 0 0-.404 1.895v9.982a8.025 8.025 0 0 1-.655 3.49 4.871 4.871 0 0 1-2.021 2.14 7.49 7.49 0 0 1-3.852.907h-.44a8.122 8.122 0 0 1-3.134-.68 4.817 4.817 0 0 1-2.227-2.185 8.76 8.76 0 0 1-.844-4.198l.027-9.347ZM236.694 13.491a12.707 12.707 0 0 0-1.185-2.838 7.516 7.516 0 0 0-1.922-2.266 3.857 3.857 0 0 0-2.478-.907 3.274 3.274 0 0 0-2.155.77 2.531 2.531 0 0 0-.898 2.04 2.626 2.626 0 0 0 .898 1.977 9.579 9.579 0 0 0 2.882 1.66c1.069.422 2.107.918 3.107 1.486a9.098 9.098 0 0 1 2.002 1.478 4.93 4.93 0 0 1 1.105 1.677c.236.65.357 1.338.359 2.031a6.794 6.794 0 0 1-.718 3.264 4.561 4.561 0 0 1-2.164 1.986 8.905 8.905 0 0 1-3.637.662 8.678 8.678 0 0 1-1.796-.173 24.021 24.021 0 0 1-1.742-.417 9.536 9.536 0 0 0-1.122-.28c-.234 0-.539.28-.898.824h-.764V19.73h.575a15.24 15.24 0 0 0 1.67 3.626 5.342 5.342 0 0 0 1.886 1.814c.675.349 1.424.526 2.182.516a4.316 4.316 0 0 0 2.873-.906 2.72 2.72 0 0 0 1.06-2.113 3.035 3.035 0 0 0-.261-1.332 2.993 2.993 0 0 0-.817-1.08 10.147 10.147 0 0 0-2.523-1.477 41.48 41.48 0 0 0-1.688-.789 16.654 16.654 0 0 1-2.2-1.142 5.315 5.315 0 0 1-2.027-1.982 5.384 5.384 0 0 1-.73-2.751 5.17 5.17 0 0 1 .729-2.746 5.099 5.099 0 0 1 2.064-1.932 5.8 5.8 0 0 1 2.694-.653 7.817 7.817 0 0 1 1.886.208c.565.13 1.122.29 1.67.48.289.125.59.22.898.282a1.49 1.49 0 0 0 1.212-.834h.521V13.5l-.548-.009ZM245.638 8.822a1.77 1.77 0 0 0-.162-.907c-.099-.145-.323-.227-.673-.227a4.887 4.887 0 0 0-3.251 1.379 9.059 9.059 0 0 0-2.371 3.336l-.512-.163 1.015-5.685h.835l.09.109a.69.69 0 0 0 .189.136c.129.045.261.082.395.109.206.017.413.017.619 0h10.946c.791 0 1.258-.136 1.401-.4h.898l.97 5.685-.521.164c-1.586-3.12-3.475-4.679-5.666-4.679a1.006 1.006 0 0 0-.691.164c-.134.249-.188.534-.153.816v14.696a2.947 2.947 0 0 0 .368 1.814c.261.28.997.426 2.2.426v.698h-8.432v-.726a8.189 8.189 0 0 0 1.59-.108.984.984 0 0 0 .718-.526c.181-.448.258-.932.225-1.415l-.027-14.696ZM182.708 3.092a2.315 2.315 0 0 0-.215-1.224c-.135-.2-.449-.309-.898-.309a6.737 6.737 0 0 0-4.49 1.814 11.989 11.989 0 0 0-3.233 4.46l-.709-.217L174.546 0h1.14l.126.145a.69.69 0 0 0 .26.172c.17.075.348.127.53.154.298.043.598.061.898.055h14.96c1.078 0 1.715-.172 1.922-.526h1.203l1.329 7.598-.709.217c-2.173-4.17-4.756-6.256-7.75-6.256a1.391 1.391 0 0 0-.898.218 1.755 1.755 0 0 0-.215 1.097v19.62c-.099.84.077 1.691.503 2.42.35.372 1.356.563 3.017.563v.979h-11.62v-.98c.717.033 1.435.003 2.146-.09a1.353 1.353 0 0 0 .979-.707 4.325 4.325 0 0 0 .305-1.886l.036-19.701Z"/><path d="M194.364 9.184a5.627 5.627 0 0 0-.144-1.54.897.897 0 0 0-.565-.626 4.04 4.04 0 0 0-1.356-.164v-.807h7.049a13.9 13.9 0 0 1 3.807.49 5.733 5.733 0 0 1 2.847 1.813 5.54 5.54 0 0 1 1.185 3.627 3.553 3.553 0 0 1-.727 2.32 4.08 4.08 0 0 1-1.635 1.27 5.025 5.025 0 0 1-1.553.426v.118c.253.11.473.285.637.508.194.31.365.635.512.97l2.865 5.703c.268.546.568 1.076.898 1.586.149.24.373.422.637.517.434.1.876.155 1.32.163v.735h-5.387l-3.323-7.806a7.655 7.655 0 0 0-.691-1.342 1.684 1.684 0 0 0-.593-.562 1.63 1.63 0 0 0-.655-.127h-1.796v6.528c-.021.55.018 1.1.116 1.64a.907.907 0 0 0 .593.69c.532.176 1.093.25 1.652.217v.762h-7.731v-.762c.451.018.904-.019 1.347-.108a.828.828 0 0 0 .547-.617 5.79 5.79 0 0 0 .171-1.704l-.027-13.918Zm3.305-2.33v8.831c.249-.008.499.01.745.054a8.805 8.805 0 0 0 3.592-.689 4.055 4.055 0 0 0 1.417-1.639 4.114 4.114 0 0 0 .379-2.141 6.016 6.016 0 0 0-.467-2.421 3.615 3.615 0 0 0-1.383-1.469 3.866 3.866 0 0 0-1.491-.444c-.574-.054-1.499-.082-2.792-.082Z"/></g><defs><clipPath id="clip0_1549_17169"><path fill="#fff" d="M0 0h256v27H0z"/></clipPath></defs></svg>