<svg xmlns="http://www.w3.org/2000/svg" xmlns:xlink="http://www.w3.org/1999/xlink" version="1.1" id="Layer_1" x="0" y="0" viewBox="0 0 392.7 120.8" style="enable-background:new 0 0 392.7 120.8" xml:space="preserve"><style>.st0{fill:#fff}.st1{clip-path:url(#SVGID_00000030449462757885392010000006176451158712778905_);fill:url(#SVGID_00000096738553476205982040000005208069946094222259_)}</style><defs><path id="SVGID_1_" d="M-101.8-360.6h595.3v841.9h-595.3z"/></defs><clipPath id="SVGID_00000016797712051118382720000014952894036348714415_"><use xlink:href="#SVGID_1_" style="overflow:visible"/></clipPath><defs><path id="SVGID_00000080891372559020326370000004314394747687681947_" d="M232 23.3c-15.2 8.5-30.7 20.2-49.3 31.8-6.4 4-13.3 8-20.6 11.9-19 10-41.4 19-69.3 24.6v1.9c88.5-5 136.7-50.2 175.6-67.9 46.2-21.1 79.3-15.4 91.5-13.7v-1.6S339.7 3.7 311 3.7c-22.9 0-51.3 4.2-79 19.6"/></defs><clipPath id="SVGID_00000136409601050250675760000018065423545865848969_"><use xlink:href="#SVGID_00000080891372559020326370000004314394747687681947_" style="overflow:visible"/></clipPath><path class="st0" d="m167.9 83.3 4.6 13.1 6.6 18.6H206l-15.9-41c-7 3.3-14.4 6.4-22.2 9.3"/><defs><path id="SVGID_00000008119927809460848160000017750252865029939098_" d="M232 23.2c-15.2 8.5-30.7 20.2-49.3 31.8-6.4 4-13.3 8-20.6 11.9-19 10-41.4 19-69.3 24.6v1.9c88.5-5 136.7-50.2 175.6-67.9 46.2-21.1 79.3-15.4 91.5-13.7v-1.6S339.7 3.6 311 3.6c-22.9 0-51.3 4.3-79 19.6"/></defs><clipPath id="SVGID_00000107581518100763217440000004309405460637163671_"><use xlink:href="#SVGID_00000008119927809460848160000017750252865029939098_" style="overflow:visible"/></clipPath><linearGradient id="SVGID_00000119099114970983566660000012704233281049958031_" gradientUnits="userSpaceOnUse" x1="-101.801" y1="481.323" x2="-100.828" y2="481.323" gradientTransform="matrix(274.5376 0 0 -274.5376 28040.947 132189.844)"><stop offset="0" style="stop-color:#7ac143"/><stop offset="1" style="stop-color:#00a94f"/></linearGradient><path style="clip-path:url(#SVGID_00000107581518100763217440000004309405460637163671_);fill:url(#SVGID_00000119099114970983566660000012704233281049958031_)" d="M92.8 3.6h267.1v89.8H92.8z"/><path class="st0" d="M7.5 17.1H32v57.3c0 16.2 6.6 21.8 17.6 21.8 6.8 0 11-.7 15.5-1.3V17.1h24.6v94.4c-8.4 2.6-27.5 5.1-40 5.1-22.4 0-42.2-8.9-42.2-36.7V17.1zM336.1 115h-24.5V17.9c8.2-1.3 21.1-2.5 32-2.5 24.2 0 41.5 11.2 41.5 36.1 0 25.5-19.6 35.1-40.2 35.1-3 0-6.7-.2-8.7-.3V115zm0-49.6c1.2.2 4.6.3 7.4.3 10.1 0 16.8-4.1 16.8-14.2 0-10.4-7.9-14.2-16.8-14.2-2 0-5.4.2-7.4.5v27.6zM182.7 55c-6.4 4-13.3 8-20.6 11.9l-9-25.3-26.8 73.4h-25.9l38.1-97.9H168L182.7 55zM261.3 115h-24.4V38.7h-29.3V17.1h83v21.6h-29.3zM370 10.3c0-3.7 3-6.4 6.6-6.4 3.5 0 6.5 2.7 6.5 6.4s-3 6.5-6.5 6.5c-3.6 0-6.6-2.7-6.6-6.5zm6.5 5.4c2.9 0 5.2-2.3 5.2-5.4 0-3.1-2.3-5.4-5.2-5.4-3 0-5.3 2.3-5.3 5.4.1 3.2 2.4 5.4 5.3 5.4zm-1.3-1.6H374V6.6h2.8c1.8 0 2.6.7 2.6 2.1 0 1.3-.8 1.9-1.9 2.1l2.1 3.3h-1.3l-2-3.2H375v3.2zm1.3-4.2c1 0 1.8-.1 1.8-1.2 0-.9-.8-1.1-1.6-1.1h-1.5v2.3h1.3z"/></svg>