<?xml version="1.0" encoding="UTF-8"?>
<svg width="66px" height="41px" viewBox="0 0 66 41" version="1.1" xmlns="http://www.w3.org/2000/svg" xmlns:xlink="http://www.w3.org/1999/xlink">
    <!-- Generator: Sketch 54.1 (76490) - https://sketchapp.com -->
    <title>Logo 3</title>
    <desc>Created with Sketch.</desc>
    <g id="Documentation" stroke="none" stroke-width="1" fill="none" fill-rule="evenodd">
        <g id="Artboard" transform="translate(-1061.000000, -1396.000000)">
            <g id="Logos" transform="translate(611.000000, 1396.000000)">
                <g id="Logos/Dankort" transform="translate(450.000000, 0.512195)">
                    <g id="Group" transform="translate(0.002959, 0.122027)">
                        <path d="M19.8572603,0.395342466 C9.1260274,0.395342466 0.395205479,9.12479452 0.395205479,19.8546575 C0.395205479,30.5856164 9.1260274,39.3158904 19.8572603,39.3158904 L46.0671233,39.3158904 C56.7969863,39.3158904 65.5265753,30.5856164 65.5265753,19.8546575 C65.5265753,9.12479452 56.7969863,0.395342466 46.0671233,0.395342466 L19.8572603,0.395342466 Z" id="WhiteBackground" fill="#FEFEFE"></path>
                        <path d="M19.8572603,0.395342466 C9.1260274,0.395342466 0.395205479,9.12479452 0.395205479,19.8546575 C0.395205479,30.5856164 9.1260274,39.3158904 19.8572603,39.3158904 L46.0671233,39.3158904 C56.7969863,39.3158904 65.5265753,30.5856164 65.5265753,19.8546575 C65.5265753,9.12479452 56.7969863,0.395342466 46.0671233,0.395342466 L19.8572603,0.395342466 Z M46.0671233,39.7110959 L19.8572603,39.7110959 C8.90794521,39.7110959 5.32907052e-14,30.8035616 5.32907052e-14,19.8546575 C5.32907052e-14,8.90684932 8.90794521,-1.77635684e-14 19.8572603,-1.77635684e-14 L46.0671233,-1.77635684e-14 C57.0150685,-1.77635684e-14 65.9217808,8.90684932 65.9217808,19.8546575 C65.9217808,30.8035616 57.0150685,39.7110959 46.0671233,39.7110959 L46.0671233,39.7110959 Z" id="BalckOutline" fill="#221E1F"></path>
                        <path d="M25.9514658,9.3729726 L7.56310959,9.3729726 C10.5303699,5.89927397 14.9405068,3.69310959 19.8572192,3.69310959 L46.0670822,3.69310959 C50.9820137,3.69310959 55.3913288,5.89927397 58.3584521,9.37215068 L44.718863,9.37215068 L37.869,16.5128356 C37.3642055,11.029 32.4600959,9.3729726 25.9514658,9.3729726 Z M50.6488082,18.6664247 L59.0555205,10.2479315 C61.0485342,12.9351918 62.2296301,16.2598493 62.2296301,19.8547808 C62.2296301,23.2609452 61.1694932,26.423 59.3644247,29.0316301 L50.6488082,18.6664247 Z M15.2276849,16.2860959 L23.6894658,16.2860959 C25.5839863,16.2860959 27.1261781,17.1340411 26.5122055,19.3193836 C25.8917945,21.5288356 25.0530274,22.6765068 22.2808356,22.6765068 L12.9034384,22.6765068 L15.2276849,16.2860959 Z M44.7757808,29.9041233 L58.7170137,29.9041233 C55.7533151,33.6279589 51.184274,36.0190548 46.0671507,36.0190548 L19.8571507,36.0190548 C14.7382466,36.0190548 10.1682466,33.627 7.20468493,29.9030274 L23.5864658,29.9030274 C31.8063288,29.9030274 36.1911233,26.9909726 37.5312603,20.7486438 L44.7757808,29.9041233 Z" id="Dankort" fill="#E21F28"></path>
                    </g>
                </g>
            </g>
        </g>
    </g>
</svg>