<?xml version="1.0" encoding="utf-8"?><svg width="256" height="27" viewBox="0 0 256 27" fill="none" xmlns="http://www.w3.org/2000/svg">
<g clip-path="url(#clip0_1549_17169)">
<path d="M9.54534 3.57226C9.58786 3.1529 9.51646 2.72977 9.33881 2.34829C9.20411 2.14882 8.88982 2.04003 8.44084 2.04003C6.77386 2.06413 5.17463 2.71001 3.95103 3.85332C2.54127 5.05786 1.43099 6.57947 0.70939 8.2959L0 8.07831L1.39184 0.480591H2.53225L2.69389 0.625655C2.76801 0.702828 2.85651 0.764451 2.9543 0.806984C3.12554 0.873427 3.30306 0.922034 3.48409 0.952048C3.76367 0.99187 4.04585 1.01006 4.32818 1.00645H19.2613C20.3388 1.00645 20.9764 0.834184 21.1739 0.480591H22.3862L23.7152 8.07831L23.0058 8.2959C20.8387 4.12532 18.2586 2.04003 15.2654 2.04003C14.9502 2.00653 14.6332 2.08334 14.3674 2.25762C14.178 2.58941 14.1022 2.97501 14.1519 3.35467V22.9745C14.0444 23.8062 14.2016 24.6508 14.6009 25.3862C14.96 25.758 15.9658 25.9484 17.618 25.9484V26.9275H6.08818V25.9574C6.81808 25.9769 7.54825 25.9314 8.27023 25.8214C8.47514 25.7876 8.66945 25.7061 8.83777 25.5834C9.00609 25.4606 9.14381 25.3 9.24003 25.1142C9.48593 24.5182 9.59048 23.8725 9.54534 23.2284V3.57226Z" fill="#006A4E"/>
<path d="M20.267 9.61045C20.2895 9.08946 20.2412 8.56781 20.1233 8.06008C20.0866 7.91718 20.0158 7.7855 19.9173 7.67647C19.8187 7.56745 19.6952 7.48438 19.5576 7.43449C19.1187 7.29872 18.6605 7.23744 18.2017 7.25316V6.47344H25.2686C26.5535 6.45688 27.8346 6.61857 29.076 6.95397C30.1826 7.25855 31.1738 7.88998 31.9225 8.76727C32.7312 9.7954 33.1485 11.0819 33.0989 12.3939C33.1332 13.231 32.8793 14.0544 32.3805 14.7239C31.9478 15.2767 31.3863 15.7128 30.7462 15.9933C30.2538 16.2169 29.7295 16.3607 29.1927 16.4194V16.5372C29.4456 16.6472 29.6655 16.8223 29.8303 17.045C30.024 17.3554 30.1951 17.6796 30.3421 18.0151L33.2246 23.6816C33.4953 24.2294 33.7951 24.7621 34.1225 25.2773C34.2716 25.517 34.4961 25.699 34.7601 25.7941C35.1934 25.8938 35.6357 25.9484 36.0801 25.9573V26.7189H30.6923L27.3699 18.9036C27.1841 18.4342 26.9525 17.9847 26.6784 17.5618C26.5301 17.33 26.3262 17.1398 26.0858 17.0087C25.8795 16.9172 25.6554 16.8738 25.4303 16.8818H23.6343V23.4096C23.6144 23.9593 23.6536 24.5095 23.7511 25.0507C23.7863 25.2058 23.8588 25.3498 23.9621 25.47C24.0655 25.5901 24.1965 25.6828 24.3437 25.7397C24.8762 25.9157 25.4366 25.9895 25.996 25.9573V26.7189H18.2017V25.9573C18.6533 25.9746 19.1054 25.9381 19.5486 25.8485C19.6818 25.7971 19.801 25.7143 19.8963 25.6071C19.9915 25.4999 20.0601 25.3713 20.0964 25.232C20.2372 24.6725 20.2947 24.095 20.267 23.5184V9.61045ZM23.5715 7.25316V16.0839C23.8216 16.074 24.0719 16.0953 24.3168 16.1474C25.5494 16.1732 26.7735 15.9352 27.9086 15.4493C29.076 14.733 29.7046 13.4728 29.7046 11.6685C29.7179 10.8405 29.5589 10.0189 29.2376 9.25686C28.9166 8.64876 28.4307 8.14558 27.8368 7.80622C27.3768 7.55159 26.869 7.39716 26.3462 7.35289C25.7805 7.29849 24.8645 7.25316 23.5715 7.25316Z" fill="#006A4E"/>
<path d="M33.7811 16.1564C33.7752 14.7665 34.0312 13.3881 34.5354 12.0947C35.0111 10.8516 35.7148 9.71045 36.6097 8.73099C37.4687 7.77951 38.4986 7.00115 39.6448 6.43717C40.7684 5.89099 41.9907 5.58245 43.2367 5.53052C44.8249 5.54973 46.3776 6.00751 47.7265 6.85422C49.2265 7.77286 50.4643 9.06947 51.3183 10.6168C52.2613 12.3087 52.7388 14.2245 52.7012 16.1655C52.7094 17.5877 52.444 18.9979 51.92 20.318C51.4235 21.5751 50.6952 22.7258 49.7738 23.7088C48.9063 24.6507 47.8665 25.4142 46.7118 25.9573C45.6306 26.4739 44.4508 26.7462 43.2546 26.7552C42.0377 26.7513 40.8364 26.479 39.7346 25.9573C38.572 25.4067 37.5261 24.6339 36.6546 23.6816C34.7742 21.6405 33.734 18.9531 33.7452 16.1655L33.7811 16.1564ZM48.8848 16.1564C48.8823 14.2917 48.6224 12.4364 48.1126 10.644C47.7874 9.3906 47.1218 8.25385 46.191 7.36195C45.3864 6.65993 44.3537 6.28223 43.2905 6.30117C42.315 6.2748 41.3614 6.59575 40.5967 7.20782C39.8159 7.85169 39.1999 8.67574 38.8007 9.61044C38.3718 10.6358 38.0702 11.7108 37.9028 12.8109C37.5002 15.2144 37.5306 17.6715 37.9926 20.0641C38.1932 21.1334 38.544 22.1684 39.0342 23.1376C39.4532 23.9668 40.0705 24.6773 40.8301 25.2048C41.5723 25.7002 42.4459 25.9563 43.3354 25.9392C44.2022 25.9537 45.0522 25.6971 45.7689 25.2048C46.5252 24.6773 47.1419 23.9707 47.5648 23.1467C48.0255 22.1563 48.3373 21.1021 48.4897 20.0188C48.7511 18.7452 48.8835 17.448 48.8848 16.1474V16.1564Z" fill="#006A4E"/>
<path d="M57.281 17.4802L52.4051 9.25692C52.1178 8.74013 51.8573 8.29587 51.6329 7.90602C51.4766 7.60103 51.2701 7.32511 51.0222 7.09003C50.8264 6.92143 50.5861 6.81428 50.3308 6.78177C49.8685 6.7331 49.4037 6.71191 48.939 6.71831V5.87512H57.8288V6.71831H57.6133C56.401 6.71831 55.8174 6.98123 55.8174 7.48896C55.8851 7.78462 56.0136 8.06261 56.1945 8.30494L60.4329 15.4584L64.7251 8.5588C64.8993 8.28846 64.9957 7.97457 65.0035 7.65215C65.0035 7.0175 64.4378 6.70017 63.3064 6.70017V5.87512H68.7839V6.71831H68.5235C67.8672 6.70477 67.2286 6.93368 66.7276 7.36203C66.1116 7.96339 65.5717 8.63946 65.1202 9.37479L60.7202 16.4104V23.6636C60.6987 24.215 60.75 24.7669 60.8729 25.3046C60.9236 25.4702 61.0141 25.6207 61.1363 25.7425C61.2585 25.8643 61.4086 25.9537 61.5733 26.0027C62.1759 26.1659 62.8 26.2332 63.4231 26.2022V26.991H54.632V26.2022C55.2338 26.2246 55.8362 26.1789 56.428 26.0662C56.5937 26.0295 56.7458 25.9462 56.8666 25.8259C56.9874 25.7055 57.0719 25.5531 57.1104 25.3862C57.2528 24.8208 57.3103 24.2371 57.281 23.6545V17.4802Z" fill="#006A4E"/>
<path d="M76.6319 12.1491V5.50338C76.6666 4.73632 76.6001 3.96801 76.4343 3.21862C76.3994 3.04107 76.3212 2.87512 76.2068 2.7358C76.0923 2.59648 75.9452 2.4882 75.7788 2.42077C75.1888 2.28823 74.5872 2.21534 73.9829 2.20317V1.17866H83.1511C84.8478 1.12969 86.5401 1.37816 88.1527 1.91305C89.3073 2.29869 90.3208 3.02508 91.0621 3.99834C91.6797 4.93669 91.9935 6.04549 91.9601 7.17161C91.9672 8.11167 91.7646 9.04129 91.3675 9.89156C90.9643 10.7174 90.366 11.4305 89.6254 11.9678C88.8211 12.5486 87.9023 12.9475 86.9315 13.1374V13.2008C88.6947 13.5602 90.3149 14.4333 91.5919 15.7122C92.1319 16.2944 92.5527 16.9786 92.83 17.7254C93.1074 18.4722 93.236 19.267 93.2083 20.0642C93.2604 21.4047 92.9233 22.7315 92.2385 23.8811C91.555 24.9308 90.5484 25.7241 89.374 26.1387C87.8544 26.6605 86.2552 26.906 84.6507 26.864H74.0009V25.903C74.5439 25.9205 75.087 25.8687 75.6172 25.7488C75.7914 25.6995 75.9518 25.6099 76.0859 25.4871C76.2199 25.3644 76.3238 25.2119 76.3894 25.0417C76.5859 24.4588 76.6682 23.8429 76.6319 23.2284V12.1491ZM80.7625 3.70821V12.6296H83.2678C83.921 12.6824 84.5766 12.5641 85.1713 12.2862C85.7659 12.0082 86.2794 11.58 86.6621 11.043C87.4122 9.85073 87.785 8.4561 87.7307 7.04468C87.7794 5.98901 87.5632 4.93804 87.1021 3.98927C86.7027 3.30306 86.0612 2.79461 85.3062 2.56583C84.363 2.29826 83.3852 2.17599 82.4058 2.20317C82.0066 2.18872 81.607 2.20996 81.2115 2.26664C81.1255 2.28038 81.0454 2.31959 80.9815 2.37931C80.9175 2.43903 80.8726 2.51657 80.8523 2.6021C80.781 2.96619 80.7509 3.33727 80.7625 3.70821ZM88.7634 19.8556C88.8578 18.2315 88.3807 16.6259 87.4164 15.3224C86.5304 14.174 85.0069 13.5997 82.8458 13.5997H80.7625V23.5729C80.7211 23.8992 80.7511 24.2307 80.8504 24.544C80.9497 24.8573 81.1159 25.1448 81.3372 25.3862C82.0013 25.7452 82.7487 25.9175 83.5013 25.8848C84.3286 25.9046 85.1535 25.7882 85.9438 25.5403C86.5942 25.3234 87.1661 24.9164 87.587 24.3707C88.0382 23.8108 88.3465 23.1477 88.485 22.4396C88.6446 21.5869 88.7376 20.723 88.7634 19.8556Z" fill="#006A4E"/>
<path d="M99.7637 8.82172C99.611 8.26866 99.4494 7.91507 99.2788 7.91507C99.8061 7.36405 100.298 6.77959 100.751 6.16524C100.962 5.9203 101.154 5.65966 101.326 5.38552C101.524 5.06819 101.658 4.91406 101.739 4.91406C101.82 4.91406 101.991 5.07726 102.116 5.40365L108.654 22.3308C108.907 23.1599 109.241 23.9617 109.65 24.7243C109.888 25.0359 110.195 25.2873 110.545 25.4588C110.896 25.6303 111.281 25.7172 111.671 25.7126V26.5104H103.589V25.7126C104.119 25.7426 104.649 25.656 105.142 25.4587C105.307 25.3765 105.442 25.2456 105.53 25.0835C105.618 24.9215 105.655 24.736 105.636 24.5521C105.614 24.1028 105.514 23.6609 105.34 23.2465L104.119 20.182H96.7106L95.7229 23.1286C95.5757 23.5502 95.4822 23.9889 95.4445 24.4342C95.4445 25.2593 96.118 25.6763 97.4649 25.6763V26.4742H92.0771V25.6763C92.7116 25.5435 93.2947 25.2287 93.7563 24.7697C94.2071 24.2369 94.5516 23.6211 94.771 22.9564L99.7637 8.82172ZM103.589 19.1666L100.177 10.1001L96.9351 19.1666H103.589Z" fill="#006A4E"/>
<path d="M126.612 21.0434V9.36574C126.651 8.7317 126.55 8.09693 126.316 7.50711C126.25 7.34308 126.151 7.19513 126.024 7.07316C125.897 6.9512 125.745 6.85804 125.58 6.79993C125.142 6.69073 124.693 6.63293 124.242 6.62766V5.80261H129.405V6.62766C129.019 6.61349 128.633 6.66561 128.265 6.78179C128.117 6.84726 127.985 6.94442 127.878 7.06653C127.771 7.18864 127.691 7.33279 127.645 7.48898C127.483 8.04171 127.414 8.61769 127.439 9.19348V27.0001H126.541L113.951 7.79724H113.87V22.9292C113.805 23.7031 114.001 24.4765 114.427 25.1233C114.669 25.3785 114.965 25.5743 115.294 25.6953C115.622 25.8164 115.974 25.8595 116.322 25.8214V26.6102H111.006V25.8214C111.555 25.8054 112.082 25.5971 112.496 25.2321C112.729 24.9321 112.9 24.5885 113 24.2212C113.101 23.854 113.128 23.4703 113.08 23.0924V7.79724C113.094 7.56554 113.048 7.33417 112.945 7.12632C112.811 6.95556 112.619 6.83966 112.407 6.79993C111.983 6.69846 111.549 6.64074 111.114 6.62766V5.80261H116.78L126.612 21.0434Z" fill="#006A4E"/>
<path d="M137.478 17.1085L136.49 18.3506V23.718C136.478 24.1589 136.514 24.5997 136.598 25.0326C136.643 25.2917 136.772 25.5281 136.966 25.7036C137.166 25.861 137.406 25.9585 137.658 25.9846C138.09 26.0393 138.524 26.0696 138.96 26.0753V26.8641H130.618V26.0753C131.224 26.1188 131.833 26.0481 132.413 25.8667C132.574 25.7937 132.713 25.6788 132.816 25.5339C132.918 25.3889 132.981 25.2191 132.997 25.0417C133.08 24.2528 133.107 23.459 133.078 22.6663V9.61054C133.089 8.95609 133.029 8.30239 132.898 7.66124C132.864 7.48361 132.787 7.31715 132.675 7.17646C132.562 7.03578 132.417 6.92517 132.252 6.85432C131.719 6.67834 131.159 6.60454 130.6 6.63673V5.80261H138.942V6.63673C138.419 6.6187 137.896 6.67361 137.388 6.79993C137.231 6.84121 137.086 6.91938 136.964 7.02808C136.842 7.13679 136.748 7.27295 136.688 7.42551C136.536 7.89617 136.469 8.39062 136.49 8.88522V17.1085L141.51 9.54707C141.95 8.9263 142.256 8.21888 142.408 7.47085C142.408 7.09912 142.309 6.87246 142.103 6.78179C141.741 6.66345 141.36 6.61425 140.98 6.63673V5.80261H146.368V6.63673C145.613 6.56023 144.854 6.73195 144.204 7.12632C143.571 7.70256 143.031 8.37564 142.605 9.12095L139.579 13.9081L145.811 24.4796C146.08 25.01 146.494 25.4508 147.005 25.7489C147.529 26.0125 148.109 26.1402 148.694 26.1206V26.9094H143.117L137.478 17.1085Z" fill="#006A4E"/>
<path d="M166.32 18.5863C166.711 17.9396 167.162 17.3324 167.667 16.7731C168.202 16.1708 168.703 15.5381 169.167 14.8782C169.504 14.3782 169.725 13.808 169.813 13.2099C169.811 13.0566 169.763 12.9076 169.675 12.7828C169.586 12.6581 169.462 12.5635 169.32 12.5118C168.82 12.3186 168.292 12.2113 167.757 12.1945V11.578H174.303V12.1945C173.691 12.2657 173.089 12.4055 172.507 12.6115C172.031 12.8062 171.596 13.0891 171.223 13.4457C170.668 13.9732 170.158 14.5463 169.697 15.1592L166.751 19.0397C167.146 19.5202 167.784 20.3724 168.646 21.5783C169.249 22.4592 169.905 23.301 170.613 24.0988C170.787 24.3017 171 24.4671 171.239 24.5855C171.479 24.7038 171.739 24.7726 172.004 24.7878C172.386 24.7862 172.761 24.683 173.091 24.4886C173.395 24.3261 173.659 24.0969 173.863 23.8177L174.42 24.0897C174.075 24.7256 173.571 25.2589 172.958 25.636C172.345 26.0131 171.645 26.2209 170.927 26.2385C170.241 26.2542 169.563 26.0885 168.96 25.7579C168.423 25.4632 167.94 25.0767 167.533 24.6156C167.05 24.0351 166.597 23.4298 166.177 22.8023C165.819 22.2673 165.432 21.7527 165.018 21.261C163.964 22.651 162.743 23.9028 161.382 24.9873C160.2 25.8399 158.775 26.2792 157.323 26.2385C156.327 26.2602 155.345 26.0029 154.485 25.495C153.671 25.0069 153.006 24.3009 152.564 23.4551C152.09 22.5706 151.828 21.5861 151.8 20.581C151.839 19.5439 152.129 18.5321 152.644 17.6344C153.161 16.7715 153.838 16.0174 154.638 15.4131C155.518 14.7103 156.469 14.1026 157.475 13.5998C156.057 12.4876 155.347 11.3996 155.347 10.3358C155.392 9.47683 155.746 8.66402 156.344 8.05109C157.005 7.28359 157.792 6.63649 158.67 6.13806C159.288 5.72049 159.996 5.45643 160.735 5.36741C161.419 5.35882 162.095 5.51092 162.711 5.81167C163.263 6.0758 163.735 6.48625 164.075 6.99938C164.391 7.47352 164.557 8.03298 164.551 8.60415C164.542 9.09433 164.389 9.57068 164.111 9.97319C163.843 10.3743 163.512 10.7293 163.133 11.0249C162.686 11.3734 162.222 11.6972 161.741 11.995C161.355 12.236 160.983 12.4994 160.627 12.7838C162.01 14.1075 163.174 15.2408 164.12 16.1837C164.905 16.9355 165.639 17.7381 166.32 18.5863ZM164.578 20.6807C164.05 19.8307 163.43 19.043 162.728 18.3325C161.947 17.5256 161.121 16.7459 160.241 15.9843L158.041 14.0984C155.662 15.0686 154.449 16.6371 154.351 18.813C154.426 20.0046 154.797 21.1579 155.428 22.1676C155.799 22.7268 156.308 23.1788 156.905 23.4792C157.502 23.7796 158.166 23.9182 158.831 23.8812L159.442 23.8268C159.623 23.8161 159.802 23.7949 159.981 23.7633C161.507 23.5729 163.034 22.494 164.578 20.6807ZM160.088 12.267C160.806 11.8882 161.476 11.4224 162.082 10.8798C162.311 10.684 162.496 10.4412 162.624 10.1676C162.753 9.89406 162.822 9.59595 162.827 9.2932C162.81 8.85456 162.683 8.42745 162.459 8.05109C162.215 7.58902 161.86 7.19622 161.426 6.90871C160.952 6.60459 160.398 6.45285 159.837 6.47352C159.348 6.47165 158.87 6.61685 158.463 6.89058C158.111 7.11108 157.825 7.4246 157.637 7.79723C157.467 8.13464 157.375 8.50664 157.368 8.88521C157.362 9.19887 157.43 9.50942 157.565 9.79186C157.713 10.0851 157.904 10.3541 158.131 10.5897C158.416 10.8769 158.716 11.1493 159.029 11.4057L160.088 12.267Z" fill="#006A4E"/>
<path d="M210.231 10.0728C210.254 9.5329 210.184 8.99308 210.024 8.47714C209.942 8.18956 209.752 7.94566 209.495 7.79715C209.209 7.6854 208.903 7.63596 208.597 7.65209V6.8905H214.945V7.65209C214.759 7.64295 214.571 7.65819 214.389 7.69742C214.086 7.68311 213.783 7.71676 213.491 7.79715C213.387 7.85215 213.296 7.92929 213.225 8.02323C213.153 8.11717 213.103 8.22564 213.078 8.34114C212.96 8.82114 212.911 9.31588 212.934 9.80991V19.0396C212.899 20.3009 213.053 21.5604 213.392 22.775C213.615 23.6258 214.107 24.3801 214.793 24.9237C215.516 25.4181 216.37 25.6804 217.244 25.6763C218.179 25.6892 219.103 25.4747 219.938 25.0507C220.763 24.6308 221.445 23.9707 221.895 23.1558C222.405 22.212 222.657 21.1478 222.623 20.0732V10.1C222.648 9.56594 222.578 9.03162 222.416 8.52247C222.359 8.3592 222.27 8.20921 222.155 8.08146C222.039 7.95372 221.899 7.85086 221.743 7.77902C221.332 7.62692 220.896 7.55911 220.459 7.57956V6.8905H225.173V7.65209C224.925 7.6258 224.675 7.64911 224.436 7.72067C224.197 7.79224 223.975 7.91065 223.781 8.06915C223.439 8.63669 223.296 9.30447 223.377 9.96404V19.9462C223.422 21.1448 223.198 22.338 222.722 23.4368C222.283 24.3436 221.577 25.091 220.701 25.5765C219.52 26.219 218.19 26.5319 216.849 26.4832H216.409C215.33 26.4672 214.265 26.2361 213.275 25.8032C212.313 25.3444 211.53 24.5758 211.048 23.6182C210.424 22.3121 210.134 20.8689 210.204 19.4204L210.231 10.0728Z" fill="#006A4E"/>
<path d="M236.694 13.491C236.415 12.4997 236.017 11.5467 235.509 10.6532C235.024 9.7757 234.371 9.00502 233.587 8.38655C232.891 7.8015 232.014 7.48076 231.109 7.4799C230.322 7.46889 229.558 7.74224 228.954 8.25055C228.659 8.49811 228.424 8.81091 228.269 9.16468C228.113 9.51845 228.04 9.90369 228.056 10.2905C228.056 10.6657 228.137 11.0363 228.292 11.3772C228.447 11.7182 228.673 12.0217 228.954 12.267C229.812 12.9846 230.787 13.5461 231.836 13.9262C232.905 14.3487 233.943 14.8455 234.943 15.4131C235.674 15.8112 236.348 16.3084 236.945 16.8909C237.424 17.3673 237.8 17.9384 238.05 18.5682C238.286 19.2189 238.407 19.9062 238.409 20.5991C238.445 21.7307 238.198 22.8533 237.691 23.863C237.206 24.7476 236.445 25.4456 235.527 25.8486C234.373 26.3214 233.135 26.5468 231.89 26.5105C231.287 26.5156 230.685 26.4579 230.094 26.3382C229.528 26.2294 228.954 26.0843 228.352 25.9211C227.984 25.8048 227.609 25.7109 227.23 25.6401C226.996 25.6401 226.691 25.9211 226.332 26.4651H225.568V19.7287H226.143C226.539 21.0067 227.1 22.2261 227.813 23.3553C228.283 24.108 228.931 24.7311 229.699 25.1686C230.374 25.5179 231.123 25.6953 231.881 25.6854C232.915 25.7385 233.934 25.417 234.754 24.7788C235.077 24.5301 235.34 24.2109 235.524 23.845C235.707 23.4792 235.807 23.0763 235.814 22.6663C235.829 22.2079 235.739 21.7521 235.553 21.3341C235.366 20.916 235.087 20.5467 234.736 20.2546C233.97 19.6422 233.12 19.1445 232.213 18.7767C232.007 18.6679 231.45 18.405 230.525 17.988C229.765 17.6626 229.029 17.2807 228.325 16.8456C227.484 16.3826 226.784 15.6979 226.298 14.8643C225.813 14.0308 225.56 13.0798 225.568 12.1129C225.55 11.1467 225.803 10.195 226.297 9.36738C226.791 8.53974 227.506 7.86976 228.361 7.43456C229.194 7.00217 230.118 6.77829 231.055 6.78178C231.689 6.7744 232.323 6.84442 232.941 6.99031C233.506 7.11982 234.063 7.28023 234.611 7.47083C234.9 7.59507 235.201 7.68925 235.509 7.75189C235.765 7.73106 236.012 7.6432 236.224 7.49695C236.437 7.35069 236.608 7.15109 236.721 6.91777H237.242V13.5L236.694 13.491Z" fill="#006A4E"/>
<path d="M245.638 8.82172C245.665 8.51035 245.609 8.19729 245.476 7.91507C245.377 7.77001 245.153 7.68841 244.803 7.68841C243.587 7.7258 242.429 8.21682 241.552 9.06652C240.519 9.98098 239.708 11.1224 239.181 12.403L238.669 12.2398L239.684 6.5551H240.519L240.609 6.6639C240.664 6.71975 240.728 6.76575 240.798 6.79989C240.927 6.84548 241.059 6.88184 241.193 6.90869C241.399 6.92565 241.606 6.92565 241.812 6.90869H252.758C253.549 6.90869 254.016 6.77269 254.159 6.50977H255.057L256.027 12.1945L255.506 12.3577C253.92 9.23878 252.031 7.67934 249.84 7.67934C249.598 7.64789 249.352 7.70584 249.149 7.84254C249.015 8.09181 248.961 8.37711 248.996 8.65852V23.3553C248.921 23.9841 249.05 24.6205 249.364 25.1686C249.625 25.4497 250.361 25.5947 251.564 25.5947V26.2928H243.132V25.5675C243.664 25.583 244.197 25.5466 244.722 25.4587C244.874 25.4337 245.018 25.3731 245.143 25.2818C245.267 25.1905 245.369 25.071 245.44 24.9329C245.621 24.485 245.698 24.0011 245.665 23.5185L245.638 8.82172Z" fill="#006A4E"/>
<path d="M182.708 3.09167C182.749 2.67145 182.675 2.24803 182.493 1.8677C182.358 1.66823 182.044 1.55944 181.595 1.55944C179.928 1.58525 178.33 2.23089 177.105 3.37273C175.698 4.58527 174.591 6.11273 173.872 7.83345L173.163 7.61585L174.546 0H175.686L175.812 0.145064C175.885 0.221975 175.974 0.28093 176.072 0.317327C176.242 0.391779 176.42 0.443594 176.602 0.471457C176.9 0.513938 177.2 0.53213 177.5 0.525856H192.46C193.538 0.525856 194.175 0.353593 194.382 0H195.585L196.914 7.59772L196.205 7.81531C194.032 3.64473 191.449 1.55944 188.455 1.55944C188.14 1.5274 187.824 1.60411 187.557 1.77703C187.368 2.10882 187.292 2.49442 187.342 2.87408V22.494C187.243 23.3347 187.419 24.185 187.845 24.9147C188.195 25.2864 189.201 25.4768 190.862 25.4768V26.456H179.242V25.4768C179.959 25.5092 180.677 25.4789 181.388 25.3862C181.594 25.3523 181.79 25.2709 181.96 25.1482C182.13 25.0256 182.269 24.865 182.367 24.679C182.608 24.0815 182.712 23.4369 182.672 22.7931L182.708 3.09167Z" fill="#006A4E"/>
<path d="M194.364 9.18443C194.387 8.66643 194.339 8.14774 194.22 7.64312C194.184 7.50023 194.113 7.36854 194.014 7.25952C193.916 7.15049 193.792 7.06743 193.655 7.01754C193.215 6.88655 192.757 6.83138 192.299 6.85434V6.04742H199.348C200.633 6.0337 201.914 6.19844 203.155 6.53701C204.262 6.84056 205.254 7.47217 206.002 8.35031C206.813 9.37757 207.233 10.6639 207.187 11.9769C207.225 12.8132 206.967 13.6359 206.46 14.2979C206.032 14.8554 205.469 15.2925 204.825 15.5672C204.333 15.792 203.809 15.9358 203.272 15.9934V16.1112C203.525 16.2211 203.745 16.3962 203.909 16.6189C204.103 16.9293 204.274 17.2536 204.421 17.5891L207.286 23.2919C207.554 23.8382 207.854 24.368 208.184 24.8785C208.333 25.1182 208.557 25.3002 208.821 25.3953C209.255 25.4949 209.697 25.5496 210.141 25.5585V26.2929H204.754L201.431 18.4866C201.245 18.0173 201.014 17.5678 200.74 17.1448C200.591 16.911 200.387 16.7179 200.147 16.5827C199.939 16.4955 199.716 16.4523 199.492 16.4557H197.696V22.9836C197.675 23.5333 197.714 24.0836 197.812 24.6247C197.842 24.7822 197.912 24.9289 198.017 25.05C198.121 25.171 198.255 25.262 198.405 25.3137C198.937 25.4897 199.498 25.5635 200.057 25.5313V26.2929H192.326V25.5313C192.777 25.5486 193.23 25.512 193.673 25.4225C193.809 25.3768 193.932 25.2959 194.028 25.1877C194.124 25.0796 194.19 24.948 194.22 24.806C194.361 24.2496 194.419 23.6751 194.391 23.1015L194.364 9.18443ZM197.669 6.85434V15.6851C197.918 15.6774 198.168 15.6956 198.414 15.7395C199.646 15.7638 200.869 15.5292 202.006 15.0504C202.617 14.6441 203.107 14.0775 203.423 13.4115C203.739 12.7455 203.87 12.0051 203.802 11.2697C203.815 10.4388 203.656 9.61424 203.335 8.84897C203.021 8.23665 202.542 7.72716 201.952 7.3802C201.49 7.13256 200.983 6.98147 200.461 6.93594C199.887 6.88154 198.962 6.85434 197.669 6.85434Z" fill="#006A4E"/>
</g>
<defs>
<clipPath id="clip0_1549_17169">
<rect width="256" height="27" fill="white"/>
</clipPath>
</defs>
</svg>
